<svg xmlns="http://www.w3.org/2000/svg" version="1.1" xmlns:xlink="http://www.w3.org/1999/xlink" width="512" height="512" x="0" y="0" viewBox="0 0 512.527 512.527" style="enable-background:new 0 0 512 512" xml:space="preserve"><g><path d="M307.446 324.793c0-19.627 7.68-38.4 21.333-52.907L484.086 108.9c2.56-2.56 3.413-5.973 1.707-9.387-.853-3.413-4.267-5.12-7.68-5.12H363.536l19.003-52.907 81.067-24.747c5.12-.853 7.68-5.973 5.973-10.24-.853-5.12-5.973-7.68-10.24-5.973l-85.333 25.6c-3.413.853-5.12 2.56-5.973 5.12L345.3 94.393H161.823c-4.235-33.555-33.054-59.733-67.71-59.733-37.547 0-68.267 30.72-68.267 68.267s30.72 68.267 68.267 68.267c12.679 0 24.772-3.497 35.328-9.994l52.17 54.75c.129.162.255.331.395.471l52.907 55.467c12.767 13.565 20.308 30.862 21.233 49.097-.485 1.118-.753 2.395-.753 3.809v93.867c0 28.16-16.213 52.907-42.667 63.147l-36.693 14.507c-3.413 1.707-5.973 5.12-5.12 9.387.853 4.267 4.267 6.827 8.533 6.827h204.8c4.267 0 7.68-2.56 6.827-7.68.853-4.267-1.707-7.68-5.12-9.387l-36.693-14.507c-25.6-10.24-42.667-34.987-42.667-63.147v-88.979c.549-1.17.853-2.526.853-4.036zm151.04-213.333-57.621 60.398c-17.759-.757-35.314 6.038-49.045 18.962-8.073 7.497-18.094 12.254-27.958 14.031l33.545-93.391h101.079zm-152.817 93.02c-6.094-1.608-13.065-5.289-17.849-12.806-9.387-11.947-22.187-19.627-37.547-20.48-16.213-.853-34.133 6.827-46.933 19.627-4.243 3.637-8.492 6.829-13.041 9.299l-52.134-54.319a7.977 7.977 0 0 0-1.385-1.913l-31.573-32.427h233.95l-33.488 93.019zM94.113 154.127c-28.16 0-51.2-23.04-51.2-51.2 0-28.16 23.04-51.2 51.2-51.2 25.6 0 46.08 18.773 50.347 42.667H85.58c-3.413 0-6.827 1.707-7.68 5.12-.641 1.283-.921 2.565-.884 3.757.048 2.072.981 4.02 2.591 5.629l37.456 39.308c-6.805 4.225-14.455 5.919-22.95 5.919zm158.76 111.768a92.273 92.273 0 0 0-5.16-5.955l-45.107-46.997c5.066-2.553 9.301-5.943 13.533-10.176 9.387-10.24 22.187-15.36 34.133-14.507 9.387 0 18.773 5.12 24.747 12.8 6.036 8.719 14.716 15.313 25.195 18.573l-8.981 24.948c-1.707 4.267.853 9.387 5.12 11.093.853.853 1.707.853 2.56.853 3.413 0 6.827-2.56 8.533-5.973l10.242-28.515c16.281-.182 33.147-6.939 46.931-19.272 5.12-5.12 11.093-8.533 17.067-11.093l-64.853 68.267c-14.507 15.36-23.893 34.987-25.6 56.32h-17.92c-1.76-14.667-6.343-28.527-13.75-40.748a93.393 93.393 0 0 0-6.69-9.618zm87.853 229.565H223.819c29.867-13.653 49.493-43.52 50.347-77.653v-84.48h17.067v84.48c0 34.133 18.773 64 49.493 77.653z" fill="#FFFFFF" opacity="1" data-original="#000000"></path></g></svg>
