<svg xmlns="http://www.w3.org/2000/svg" version="1.1" xmlns:xlink="http://www.w3.org/1999/xlink" width="512" height="512" x="0" y="0" viewBox="0 0 59.521 59.521" style="enable-background:new 0 0 512 512" xml:space="preserve"><g><path d="m59.521 57.796-6.509-6.509-13.998-13.998.108-.135c3.02-3.883 3.271-9.287.712-13.429l10.045-10.044.753.753c.377.377.873.565 1.368.565s.991-.188 1.368-.565l.088-.088 1.414 1.414 1.414-1.414-1.414-1.414 1.414-1.414 1.414 1.414 1.414-1.414-1.704-1.704a4.97 4.97 0 0 0-1.101-5.343l-1.461-1.462a4.977 4.977 0 0 0-5.343-1.1L47.798.204l-1.414 1.414 1.414 1.414-1.414 1.415-1.414-1.415-1.414 1.414 1.414 1.415-.087.087a1.937 1.937 0 0 0 0 2.737l.752.752-9.989 9.989a11.768 11.768 0 0 0-13.764.531l-.11.091L8.485 6.761 7.021 5.296 5.606 6.71l1.536 1.536a4.966 4.966 0 0 0-.829 2.757c0 1.336.521 2.592 1.474 3.544l10.097 9.842c.697 1.85-.045 4.36-1.859 6.176-2.243 2.243-5.402 2.8-7.194 1.265l-.639-.548-3.641 3.012a11.793 11.793 0 0 0-4.528 8.573 11.792 11.792 0 0 0 3.283 8.903 2.995 2.995 0 0 0-.574 3.402L.294 57.61a.999.999 0 1 0 1.413 1.413l2.436-2.436c.398.19.832.3 1.286.3.8 0 1.553-.312 2.118-.876a11.787 11.787 0 0 0 8.903 3.283 11.782 11.782 0 0 0 8.564-4.518l2.962-3.698-.522-.628c-1.492-1.794-.922-4.938 1.298-7.158 1.743-1.743 4.114-2.496 5.958-1.926.318.351.771.812 1.451 1.497l9.074 9.132a4.965 4.965 0 0 0 3.535 1.465c.996 0 1.946-.291 2.757-.829l6.58 6.58 1.414-1.415zM46.298 7.362l2.938-2.939c.104-.104.22-.188.336-.274.077-.055.155-.109.248-.166l.033-.02a2.964 2.964 0 0 1 1.482-.408c.76 0 1.52.289 2.098.867l1.461 1.462a2.963 2.963 0 0 1 .466 3.565l-.029.049c-.055.093-.109.17-.164.247-.085.115-.169.231-.273.335L52 12.974l-.713-.701.006-.006-4.243-4.244-.04.04-.712-.701zm2.167 4.905L30.828 29.902l-1.414-1.414 7.851-7.851 9.785-9.786 1.415 1.416zM8.313 11.003c0-.455.101-.896.292-1.294l11.619 11.619-.693.573-.722.597-9.617-9.375a2.976 2.976 0 0 1-.879-2.12zM4.722 54.595a1 1 0 0 1-.002-1.411l2.452-2.453 1.414 1.415-2.451 2.449c-.375.378-1.033.378-1.413 0zm22.616-12.717c-2.698 2.697-3.447 6.559-1.9 9.171l-1.992 2.488a9.788 9.788 0 0 1-14.49 1.068l2.459-2.459-4.242-4.243-2.46 2.46A9.793 9.793 0 0 1 2.02 42.99a9.81 9.81 0 0 1 3.783-7.138l2.42-2.002c2.617 1.588 6.491.853 9.216-1.872 2.246-2.247 3.191-5.292 2.489-7.809l1.481-1.225 1.73-1.43a9.77 9.77 0 0 1 11.063-.642l-7.616 7.616 4.242 4.242 7.548-7.547c1.865 3.377 1.578 7.637-.818 10.724l-2.728 3.41c-2.472-.55-5.339.408-7.492 2.561zm19.312 8.704a8331.908 8331.908 0 0 1-10.121-10.188l.32-.4.907-1.133 12.307 12.307c-1.1.527-2.528.299-3.413-.586z" fill="#FFFFFF" opacity="1" data-original="#000000"></path><path d="M19.099 36.585a.999.999 0 1 0 1.414-1.414c-1.134-1.134-3.112-1.132-4.242 0l-4.243 4.242c-.391.391-1.023.391-1.414 0A.999.999 0 1 0 9.2 40.827c.585.585 1.353.877 2.121.877s1.536-.292 2.121-.877l4.244-4.242c.376-.379 1.033-.377 1.413 0zM22.634 38.706a.999.999 0 0 0 0 1.414c.39.391.39 1.024 0 1.415l-4.242 4.242a2.982 2.982 0 0 0-.879 2.121c0 .802.313 1.556.879 2.122a1 1 0 0 0 1.414-1.416.987.987 0 0 1-.293-.706c0-.267.104-.518.293-.707l4.242-4.242a3.003 3.003 0 0 0 0-4.243.999.999 0 0 0-1.414 0z" fill="#FFFFFF" opacity="1" data-original="#000000"></path></g></svg>
