<svg xmlns="http://www.w3.org/2000/svg" version="1.1" xmlns:xlink="http://www.w3.org/1999/xlink" width="512" height="512" x="0" y="0" viewBox="0 0 512 512" style="enable-background:new 0 0 512 512" xml:space="preserve"><g><path d="M511.892 157.407c-.004-8.755-3.447-16.476-9.957-22.326l-77.824-69.956c-9.68-8.699-21.885-17.59-39.045-17.59h-.018c-17.171.006-29.377 8.909-39.052 17.618l-77.774 70.009c-6.507 5.856-9.944 13.58-9.941 22.335l.036 89.85h-51.651c9.348-19.413 15.859-50.079 8.547-73.042-5.146-16.161-16.479-26.815-32.773-30.811a8.001 8.001 0 0 0-9.701 5.974c-.887 3.853-1.708 7.465-2.479 10.86-9.609 42.314-10.844 47.752-37.385 65.099-18.75 12.255-20.081 13.837-31.742 30.849a1681.377 1681.377 0 0 1-3.976 5.782c-4.722 6.83-10.763 9.91-19.542 9.987l-.677.002v-1.916c0-9.964-8.106-18.07-18.071-18.07H18.07c-9.964 0-18.07 8.106-18.07 18.07v176.263c0 9.965 8.106 18.071 18.07 18.071h40.798c9.964 0 18.071-8.106 18.071-18.071v-8.2c3.606 1.258 7.211 2.6 10.923 3.986 18.175 6.788 38.774 14.482 69.359 14.482h106.196c4.527 0 8.835-.945 12.746-2.64 3.84 1.727 8 2.64 12.265 2.64h.007l193.54-.067c16.562-.007 30.031-13.486 30.024-30.048zM60.939 446.394c0 1.123-.948 2.071-2.071 2.071H18.07c-1.122 0-2.07-.948-2.07-2.071V270.131c0-1.122.948-2.07 2.07-2.07h40.798c1.123 0 2.071.948 2.071 2.07zm96.282-5.732c-27.694 0-46.029-6.849-63.76-13.471-5.353-1.999-10.842-4.049-16.521-5.879V288.047l.771-.002c13.975-.122 24.947-5.805 32.609-16.89 1.484-2.146 2.809-4.079 4.011-5.833 10.754-15.689 10.754-15.689 27.299-26.503 31.957-20.887 34.313-31.266 44.233-74.948l.447-1.971c6.593 3.5 11.092 9.202 13.658 17.259 7.548 23.704-4.355 60.197-13.668 70.95a8.001 8.001 0 0 0 6.048 13.238h91.46c8.913 0 16.164 7.251 16.164 16.164s-7.251 16.165-16.164 16.165h-63.055a8 8 0 0 0 0 16h76.269c8.913 0 16.164 7.251 16.164 16.164s-7.251 16.165-16.164 16.165h-76.269a8 8 0 0 0 0 16h67.963c8.913 0 16.164 7.251 16.164 16.164s-7.251 16.164-16.164 16.164h-67.963a8 8 0 0 0 0 16h42.665c8.913 0 16.165 7.252 16.165 16.165s-7.251 16.164-16.165 16.164zm324.748-.067-190.761.066a31.957 31.957 0 0 0 4.374-16.163 31.971 31.971 0 0 0-4.418-16.257c16.596-1.256 29.716-15.161 29.716-32.072a32.02 32.02 0 0 0-7.511-20.636c9.46-5.606 15.817-15.922 15.817-27.693 0-13.173-7.961-24.521-19.323-29.489a31.991 31.991 0 0 0 6.109-18.84c0-17.735-14.429-32.164-32.164-32.164h-9.49l-.036-89.855c-.001-4.208 1.518-7.622 4.645-10.437l77.774-70.01c10.657-9.593 18.872-13.506 28.354-13.51h.012c9.474 0 17.69 3.909 28.35 13.489l77.824 69.956c3.129 2.813 4.651 6.226 4.653 10.434L496 426.553c.003 7.74-6.291 14.039-14.031 14.042zm-48.856-108.263c1.172 9.655-1.416 18.467-7.483 25.482-7.136 8.25-18.994 13.781-32.489 15.333v10.176a8 8 0 0 1-16 0v-10.292c-19.984-2.746-35.518-15.382-40.015-33.42a8 8 0 0 1 15.525-3.871c4.144 16.619 20.868 22.164 33.938 21.838 11.222-.267 21.796-4.282 26.94-10.23 3.122-3.609 4.333-7.891 3.702-13.088-1.493-12.3-11.754-19.36-33.271-22.893-34.244-5.623-42.218-22.99-42.876-36.568-.914-18.815 12.258-34.585 32.777-39.239a50.745 50.745 0 0 1 3.282-.629v-10.405a8 8 0 0 1 16 0v10.337c14.647 2.169 29.096 10.654 36.315 27.849a8 8 0 0 1-4.279 10.473 7.998 7.998 0 0 1-10.473-4.279c-6.939-16.526-23.736-20.818-37.306-17.74-10.254 2.325-20.981 9.552-20.334 22.859.202 4.167.817 16.848 29.487 21.555 10.622 1.742 42.955 7.051 46.56 36.752zm-48.038-177.524c15.709 0 28.49-12.78 28.49-28.49s-12.78-28.49-28.49-28.49-28.491 12.78-28.491 28.49 12.781 28.49 28.491 28.49zm0-40.981c6.887 0 12.49 5.604 12.49 12.49s-5.603 12.49-12.49 12.49-12.491-5.604-12.491-12.49 5.604-12.49 12.491-12.49z" fill="#FFFFFF" opacity="1" data-original="#000000"></path></g></svg>
